<svg width="24" height="24" viewBox="0 0 24 24" fill="none" xmlns="http://www.w3.org/2000/svg">
<path d="M17.6707 6.35839C17.6829 6.37108 17.6951 6.38375 17.7066 6.39706C17.7182 6.41049 17.7297 6.42393 17.7404 6.4378C17.7477 6.44718 17.7542 6.45717 17.7612 6.46681C17.7723 6.48222 17.7828 6.49788 17.7929 6.51376C17.799 6.52335 17.8051 6.53296 17.8109 6.54277C17.8462 6.60259 17.874 6.6654 17.8958 6.7299C17.9299 6.83056 17.9497 6.93811 17.9497 7.05031V16.9498C17.9496 17.502 17.502 17.9496 16.9498 17.9497C16.3975 17.9497 15.9499 17.502 15.9499 16.9498V9.46441L7.7574 17.6569C7.36689 18.0474 6.73371 18.0474 6.34319 17.6569C5.95266 17.2664 5.95266 16.6332 6.34319 16.2427L14.5357 8.0502H7.05029C6.49804 8.0502 6.05045 7.60255 6.0504 7.05031C6.0504 6.49802 6.49801 6.05042 7.05029 6.05042H16.9498C17.0306 6.05042 17.1112 6.06131 17.1901 6.0808C17.2127 6.08639 17.2351 6.09235 17.2571 6.09944C17.3237 6.12093 17.3886 6.14923 17.4504 6.18507C17.4653 6.19367 17.4803 6.20198 17.4946 6.21131C17.504 6.21743 17.513 6.22418 17.5222 6.23064C17.5368 6.24084 17.5511 6.25147 17.5651 6.26241C17.5791 6.27344 17.5929 6.28504 17.6065 6.29694C17.6185 6.30743 17.6302 6.31833 17.6417 6.32939C17.6466 6.3341 17.6521 6.33837 17.6569 6.3432C17.6617 6.34805 17.666 6.35347 17.6707 6.35839Z" fill="#1F2126"/>
</svg>
