<svg width="24" height="24" viewBox="0 0 24 24" fill="none" xmlns="http://www.w3.org/2000/svg">
<path d="M4 5.00038C3.99985 4.47266 4.1391 3.95426 4.40332 3.49745C4.66768 3.04056 5.04815 2.66078 5.50586 2.39784C5.96338 2.13508 6.48216 1.99769 7.00977 1.99941C7.53759 2.0012 8.05582 2.14258 8.51172 2.40859L20.5059 9.40468C20.96 9.66819 21.3384 10.0465 21.6006 10.5014C21.8628 10.9562 22.0005 11.4724 22.001 11.9975C22.0014 12.5224 21.8639 13.0383 21.6025 13.4935C21.3738 13.892 21.0573 14.2319 20.6777 14.4877L20.5117 14.5922L8.51172 21.5922C8.0559 21.8581 7.53746 21.9986 7.00977 22.0004L7.00293 20.0004C7.18027 19.9998 7.35325 19.9525 7.50391 19.8646L19.4795 12.8783L19.5713 12.8207C19.6919 12.7369 19.7938 12.627 19.8682 12.4975C19.9553 12.3456 20.0011 12.1739 20.001 11.9994C20.0008 11.8228 19.9547 11.6505 19.8682 11.5004C19.7818 11.3506 19.6552 11.2231 19.502 11.1342L19.498 11.1322L7.50391 4.13612C7.35129 4.04707 7.17812 4 7.00293 3.99941C6.87108 3.99902 6.7411 4.02493 6.62012 4.0746L6.50195 4.13222C6.35024 4.21941 6.2233 4.34639 6.13477 4.49941C6.04662 4.65194 6.00002 4.82429 6 4.99941V19.0004C6.00001 19.1766 6.04696 19.3496 6.13477 19.5014C6.22247 19.6529 6.34885 19.7796 6.50195 19.8676C6.65413 19.955 6.82688 20.0009 7.00293 20.0004L7.00977 22.0004C6.48212 22.0021 5.9634 21.8647 5.50586 21.6019C5.04822 21.339 4.66767 20.9601 4.40332 20.5033C4.13897 20.0464 3.99984 19.5273 4 18.9994V5.00038Z" fill="#1F2126"/>
</svg>
