<svg width="24" height="24" viewBox="0 0 24 24" fill="none" xmlns="http://www.w3.org/2000/svg">
<path d="M14.4688 1.01465C15.1554 1.08297 15.8008 1.3867 16.293 1.87891L18.707 4.29297C19.0976 4.68349 19.0976 5.31651 18.707 5.70703C18.3165 6.09756 17.6835 6.09756 17.293 5.70703L14.8789 3.29297C14.7148 3.12884 14.4994 3.02764 14.2705 3.00488L14.1719 3H6C5.73478 3 5.4805 3.10543 5.29297 3.29297C5.10543 3.4805 5 3.73478 5 4V20C5 20.2652 5.10543 20.5195 5.29297 20.707C5.48051 20.8946 5.73478 21 6 21H18C18.2652 21 18.5195 20.8946 18.707 20.707C18.8946 20.5195 19 20.2652 19 20C19 19.4477 19.4477 19 20 19C20.5523 19 21 19.4477 21 20C21 20.7957 20.6837 21.5585 20.1211 22.1211C19.5585 22.6837 18.7957 23 18 23H6C5.20435 23 4.44151 22.6837 3.87891 22.1211C3.3163 21.5585 3 20.7957 3 20V4C3 3.20435 3.3163 2.44152 3.87891 1.87891C4.44152 1.3163 5.20435 1 6 1H14.1719L14.4688 1.01465ZM9 17C9.55228 17 10 17.4477 10 18C10 18.5523 9.55228 19 9 19H8C7.44772 19 7 18.5523 7 18C7 17.4477 7.44772 17 8 17H9ZM19.876 8C20.7045 8 21.4991 8.3292 22.085 8.91504C22.6708 9.5009 23 10.2955 23 11.124C23 11.9525 22.6708 12.7472 22.085 13.333L18.0713 17.3428C17.715 17.6989 17.2746 17.9594 16.791 18.1006L13.9209 18.9385C13.6629 19.0137 13.3892 19.0178 13.1289 18.9512C12.8685 18.8844 12.6305 18.7487 12.4404 18.5586C12.2503 18.3685 12.1146 18.1305 12.0479 17.8701C11.9812 17.6098 11.9854 17.3361 12.0605 17.0781L12.8984 14.208L12.957 14.0283C13.1065 13.6152 13.3445 13.2385 13.6562 12.9268L17.667 8.91504C18.2528 8.32923 19.0475 8.00005 19.876 8ZM19.876 10C19.615 10 19.3631 10.0908 19.1631 10.2549L19.0811 10.3291L15.0713 14.3408C14.9525 14.4596 14.8655 14.6073 14.8184 14.7686L14.2363 16.7627L16.2314 16.1807C16.3922 16.1336 16.5387 16.0471 16.6572 15.9287L20.6709 11.9189L20.7451 11.8369C20.9092 11.6368 21 11.385 21 11.124C21 10.8259 20.8817 10.5399 20.6709 10.3291C20.4601 10.1183 20.1741 10 19.876 10Z" fill="currentColor"/>
</svg>
