<svg width="24" height="24" viewBox="0 0 24 24" fill="none" xmlns="http://www.w3.org/2000/svg">
<path d="M12 1C14.8854 1 17.6712 2.03046 19.7402 3.89258C21.8127 5.75783 23 8.31181 23 11C23 12.5913 22.3674 14.117 21.2422 15.2422C20.117 16.3674 18.5913 17 17 17H14.75C14.6107 17 14.4739 17.0391 14.3555 17.1123C14.2371 17.1855 14.1413 17.2906 14.0791 17.415C14.017 17.5395 13.9904 17.6788 14.0029 17.8174C14.0154 17.9561 14.0668 18.0888 14.1504 18.2002L14.4502 18.5996C14.7566 19.0082 14.9434 19.4943 14.9893 20.0029C15.0351 20.5114 14.9382 21.0228 14.71 21.4795C14.4816 21.9363 14.1297 22.3204 13.6953 22.5889C13.2609 22.8573 12.7607 23 12.25 23H12C9.08262 23 6.28458 21.8412 4.22168 19.7783C2.15878 17.7154 1 14.9174 1 12C1 9.08262 2.15878 6.28458 4.22168 4.22168C6.28458 2.15878 9.08262 1 12 1ZM6.5 11C5.67157 11 5 11.6716 5 12.5C5 13.3284 5.67157 14 6.5 14C7.32843 14 8 13.3284 8 12.5C8 11.6716 7.32843 11 6.5 11ZM17.5 9C16.6716 9 16 9.67157 16 10.5C16 11.3284 16.6716 12 17.5 12C18.3284 12 19 11.3284 19 10.5C19 9.67157 18.3284 9 17.5 9ZM8.5 6C7.67157 6 7 6.67157 7 7.5C7 8.32843 7.67157 9 8.5 9C9.32843 9 10 8.32843 10 7.5C10 6.67157 9.32843 6 8.5 6ZM13.5 5C12.6716 5 12 5.67157 12 6.5C12 7.32843 12.6716 8 13.5 8C14.3284 8 15 7.32843 15 6.5C15 5.67157 14.3284 5 13.5 5Z" fill="#1F2126"/>
</svg>
